<?xml version="1.0" encoding="UTF-8" standalone="no"?>
<!DOCTYPE svg PUBLIC "-//W3C//DTD SVG 1.1//EN" "http://www.w3.org/Graphics/SVG/1.1/DTD/svg11.dtd">
<svg xmlns="http://www.w3.org/2000/svg" version="1.1" viewBox="0.00 0.00 1448.00 1448.00">
<path fill="#000000" d="
  M 135.78 521.55
  C 235.10 349.64 407.40 228.07 602.00 192.73
  Q 731.38 169.24 862.78 195.87
  C 1008.17 225.34 1139.34 304.29 1236.65 415.00
  C 1304.38 492.04 1352.96 584.01 1380.40 682.99
  Q 1400.49 755.48 1404.26 836.50
  C 1409.60 951.14 1386.43 1073.18 1296.09 1152.84
  C 1257.39 1186.97 1209.63 1211.14 1160.25 1226.51
  C 1096.03 1246.49 1025.03 1255.94 956.56 1260.28
  C 859.86 1266.40 762.54 1265.97 665.68 1265.48
  C 608.19 1265.18 553.68 1264.10 497.18 1260.66
  C 430.84 1256.62 364.60 1247.98 300.48 1230.06
  C 210.90 1205.02 131.42 1153.47 87.78 1070.21
  C 57.87 1013.15 46.22 949.41 44.24 884.56
  C 40.34 757.08 72.01 631.91 135.78 521.55
  Z
  M 150.59 1016.43
  C 178.16 1081.11 233.39 1122.97 299.63 1145.75
  C 357.27 1165.57 419.38 1174.36 479.93 1179.10
  C 528.10 1182.87 580.45 1184.38 630.75 1184.88
  Q 727.28 1185.84 823.81 1184.88
  Q 894.70 1184.16 965.43 1179.30
  C 1015.07 1175.88 1064.70 1168.63 1110.73 1157.17
  C 1192.05 1136.92 1265.07 1095.51 1298.74 1014.81
  C 1320.47 962.76 1325.96 906.78 1324.69 850.56
  C 1320.58 667.96 1235.27 500.31 1091.98 388.03
  C 926.43 258.29 699.50 226.14 504.79 303.53
  C 273.59 395.42 120.27 620.74 123.99 871.32
  C 124.73 921.31 130.90 970.24 150.59 1016.43
  Z"
/>
<circle fill="#000000" cx="457.96" cy="678.72" r="91.15"/>
<circle fill="#000000" cx="1002.51" cy="678.72" r="91.15"/>
</svg>
