<?xml version="1.0" encoding="utf-8"?>
<svg viewBox="302.1598 55.8921 356.7565 440.0591" xmlns="http://www.w3.org/2000/svg">
  <g data-name="Layer 2" transform="matrix(3.859415054321289, 0, 0, 3.859415054321289, 202.88116455078125, 28.589942932128906)" style="">
    <path fill="#b0c4cc" d="M27.9716,28.6678,53.1822,63.3833A8.3343,8.3343,0,0,0,60.0528,67h7.8944a8.3343,8.3343,0,0,0,6.8706-3.6167s19.4858-26.3208,25.3786-34.3565a4.6484,4.6484,0,0,0,.4917-2.0708Z"/>
    <path fill="#dce2e1" d="M100.6881,26.956c0,4.3109-16.4258,7.8055-36.6881,7.8055S27.3119,31.2669,27.3119,26.956c0-2.7423,6.647-5.1543,16.7-6.5465l5.0245-.5824c4.57-.4348,9.6337-.6766,14.9633-.6766a147.4391,147.4391,0,0,1,20.5127,1.3331Z"/>
    <path d="M91.3047,41.09l-.226-.0982a39.5539,39.5539,0,0,0-14.6178-2.664c-7.4428.3176-10.6091,5.2057-19.21,4.5511L57,47l2,1H86.1981C87.8918,45.709,89.6288,43.3587,91.3047,41.09Z" style="fill: rgb(212, 105, 0);"/>
    <path fill="#b0c4cc" d="M67.1618,111.6392C76.7051,111.9617,84,113.72,84,115.8414c0,2.35-8.9543,4.255-20,4.255s-20-1.905-20-4.255c0-2.1212,7.2951-3.88,16.8387-4.2022Z"/>
    <path fill="#dce2e1" d="M62,64.8069V105.375c-.0893,5.8214-.92,7.125-4.757,8.7885h.0077a.5338.5338,0,0,0-.2507.39c0,.8226,3.134,1.4893,7,1.4893s7-.6667,7-1.4893a.5338.5338,0,0,0-.2507-.39h.0077c-3.8641-1.6456-4.6677-3.0385-4.757-8.7885V65Z"/>
    <polygon points="60.064 47.963 43.086 18.376 26.724 13.34 27.9 9.517 45.771 15.017 63.661 46.194 60.064 47.963" style="fill: rgb(237, 133, 30);"/>
    <path d="M51.7834,33.5327l8.28,14.43,3.5973-1.769-7.1-12.3728Q54.103,33.7094,51.7834,33.5327Z" style="fill: rgb(237, 133, 30);"/>
    <path d="M88.1741,45.3268l-.2568.0876a28.5274,28.5274,0,0,1-11.2337,2.3922c-9.2622,0-15.437-4.6311-24.6991-6.1748a26.683,26.683,0,0,0-13.3381,1.4437l-.1377.1021L53.1823,63.3833A8.334,8.334,0,0,0,60.0529,67h7.8942a8.334,8.334,0,0,0,6.8706-3.6167S81.4686,54.4,88.1741,45.3268Z" fill="#ed931b"/>
    <circle cx="100.688" cy="24.547" r="16.473" fill="#ffdc7b"/>
    <path fill="#ffeda1" d="M92.8336,39.02c3.0289-4.1023,5.7246-7.7588,7.3628-9.9927a4.6484,4.6484,0,0,0,.4917-2.0708c0,2.4935-5.509,4.71-14.064,6.139A16.499,16.499,0,0,0,92.8336,39.02Z"/>
    <path fill="#ed931b" d="M100.7231,42.0225a17.7515,17.7515,0,0,1-2.0239-.1158,17.4191,17.4191,0,1,1,2.0239.1158Zm-.0463-32.9493a15.474,15.474,0,1,0,15.3837,17.2354h0A15.4729,15.4729,0,0,0,102.45,9.1748,15.5393,15.5393,0,0,0,100.6768,9.0732Z"/>
    <path fill="#fcc454" d="M93.4315,38.21a15.4236,15.4236,0,0,1-4.8592-4.0383q-.4848-.61-.9016-1.2572c-.6828.1229-1.3791.2425-2.1033.3547h0a17.6726,17.6726,0,0,0,1.4389,2.1466,17.4449,17.4449,0,0,0,5.2188,4.4281Z"/>
    <path d="M102.0755 12.3167c2.4816.3959 3.4343 1.2111 3.2566 2.38-.1246.82-3.7514 6.5376-4.2681 6.4784s-2.7562-6.4488-2.6921-7.276c.0914-1.1787 1.2038-1.7572 3.7105-1.5815M90.8035 16.9336c1.5836-1.9511 2.7659-2.3686 3.6893-1.63.648.5181 3.786 6.5177 3.4764 6.9356s-6.963-.8375-7.6472-1.3066c-.9751-.6685-.92-1.9211.4856-4.0042M110.5835 31.9783c-1.5836 1.9512-2.7659 2.3686-3.6893 1.63-.648-.5181-3.7861-6.5176-3.4764-6.9355s6.9629.8375 7.6472 1.3066c.9751.6684.92 1.9211-.4857 4.0041M99.0653 36.9717c-2.4815-.3958-3.4342-1.211-3.2566-2.38.1247-.82 3.7514-6.5377 4.2682-6.4784s2.7561 6.4488 2.692 7.276c-.0913 1.1786-1.2037 1.7572-3.71 1.5814M88.9818 29.4934c-.8979-2.347-.6683-3.58.4327-4.01.7727-.3022 7.5375-.02 7.7446.4571s-4.2068 5.6113-4.9552 5.9694c-1.0664.51-2.1237-.1639-3.2248-2.4227M112.0217 19.35c.8979 2.3469.6683 3.58-.4327 4.01-.7727.3021-7.5375.02-7.7446-.4571s4.2068-5.6114 4.9552-5.9694c1.0664-.51 2.1237.1638 3.2248 2.4226" fill="#ed931b"/>
    <path fill="#fcc454" d="M100.1964,29.0268a1.8327,1.8327,0,0,0,.2285-.4692,2.2836,2.2836,0,0,0-.2216-.347,5.1305,5.1305,0,0,1-1.24,1.1054,29.1111,29.1111,0,0,0-3.155,5.2759,1.6709,1.6709,0,0,0-.0126.4129C97.5809,32.5847,99.12,30.4951,100.1964,29.0268Z"/>
  </g>
  <g data-name="Layer 3" transform="matrix(3.859415054321289, 0, 0, 3.859415054321289, 202.88116455078125, 28.589942932128906)" style="">
    <path d="M114.37,13.6787A17.4638,17.4638,0,0,0,84,19.4069,150.0162,150.0162,0,0,0,64,18.15c-5.1845,0-10.1933.2257-14.8949.6677L46.6382,14.519a.9992.9992,0,0,0-.5733-.458L28.1943,8.5615a.9991.9991,0,0,0-1.2495.6616l-1.1767,3.8233a.9991.9991,0,0,0,.6616,1.2495l15.9858,4.92.22.3837c-7.7249,1.1619-16.3237,3.3526-16.3237,7.3566a2.9528,2.9528,0,0,0,.6641,1.81.9953.9953,0,0,0,.1865.49L52.3579,63.9492A9.3318,9.3318,0,0,0,60.0527,68H61v37.36c-.0405,2.64-.2278,4.2152-.76,5.3015-3.9223.1647-17.24,1.03-17.24,5.18,0,4.148,13.2,5.2549,21,5.2549s21-1.1069,21-5.2549c0-4.1461-13.293-5.0135-17.2288-5.1794-.533-1.0907-.73-2.67-.7712-5.2869V68h.9473a9.3149,9.3149,0,0,0,7.6743-4.0215c.1373-.1854,9.7867-13.22,17.5152-23.6861a17.4672,17.4672,0,0,0,5.5624,1.6143,17.7515,17.7515,0,0,0,2.0239.1158A17.4746,17.4746,0,0,0,114.37,13.6787ZM64,20.15a148.4814,148.4814,0,0,1,19.5271,1.2111c-.0734.3962-.1524.79-.199,1.1966a17.3458,17.3458,0,0,0,1.7279,9.7913A143.2766,143.2766,0,0,1,64,33.7617q-3.327,0-6.3867-.1162L50.2048,20.7346C54.5816,20.3525,59.2086,20.15,64,20.15ZM27.9736,12.6787l.5884-1.9116L45.1,15.8564,55.2478,33.5408c-.811-.0417-1.6085-.088-2.3876-.14l-8.9066-15.522a.9986.9986,0,0,0-.5732-.458Zm59.575,31.812c-.009.0036-.0186.002-.0276.0059a27.7594,27.7594,0,0,1-10.8374,2.31c-5.1777,0-9.3735-1.5009-13.8154-3.09-.13-.0464-.2633-.0924-.3933-.1388a29.3875,29.3875,0,0,0,6.069-2.0575,21.3514,21.3514,0,0,1,7.96-2.1933A37.7032,37.7032,0,0,1,89.718,41.5546C89,42.5261,88.275,43.5079,87.5486,44.4907ZM57.7348,41.8955l-3.6863-6.4244q1.1808.07,2.3773.1226l3.6091,6.29A18.4448,18.4448,0,0,1,57.7348,41.8955ZM28.312,26.9561c0-1.1488,3.2458-3.7544,15.395-5.4895L50.45,33.2178C36.4777,32.0359,28.312,29.1594,28.312,26.9561Zm23.3389,8.3546,3.4038,5.9319c-.937-.2276-1.903-.43-2.9058-.5971A27.4057,27.4057,0,0,0,38.8527,41.95L31.3188,31.5752C35.9548,33.44,43.37,34.6919,51.6509,35.3107Zm31.35,80.5179c-.2881,1.14-7.0679,3.2676-19.001,3.2676s-18.7129-2.1274-19.001-3.2422c.207-.82,4.3082-2.4682,12.82-3.0557-.9643.4738-1.0732.4408-1.291.667A1.4332,1.4332,0,0,0,56,114.5537c0,2.166,5.0122,2.4893,8,2.4893s8-.3233,8-2.4893a1.4337,1.4337,0,0,0-.5244-1.0854c-.23-.237-.3369-.1952-1.3089-.6709C78.6882,113.3837,82.7939,115.0314,83.001,115.8286ZM69.1719,114.53A21.992,21.992,0,0,1,64,115.043a21.9247,21.9247,0,0,1-5.1787-.5152c3.313-1.6987,4.0942-3.6406,4.1787-9.1528V68h2v37.3906C65.085,110.8433,65.9038,112.8574,69.1719,114.53Zm4.8218-51.7124A7.3339,7.3339,0,0,1,67.9473,66H60.0527a7.3468,7.3468,0,0,1-6.0615-3.2041L40.0827,43.6434A25.2112,25.2112,0,0,1,51.82,42.6182a58.7849,58.7849,0,0,1,10.3745,2.9809c4.61,1.6494,8.9649,3.2075,14.4893,3.2075a28.5819,28.5819,0,0,0,8.6912-1.375C79.4614,55.4305,74.1064,62.6643,73.9937,62.8174ZM90.9579,39.876a39.88,39.88,0,0,0-14.5394-2.5474,23.2573,23.2573,0,0,0-8.6626,2.3535,27.8737,27.8737,0,0,1-5.58,1.9142L58.7813,35.681c1.7317.0522,3.4755.0807,5.2187.0807A146.4085,146.4085,0,0,0,86.1344,34.201c.275.4131.56.8215.8719,1.2145a17.47,17.47,0,0,0,4.3652,3.9005Zm.5626-8.9209a5.2436,5.2436,0,0,1-1.2392-1.7974c-.3433-.9072-.7925-2.4106-.1661-2.6582a34.9708,34.9708,0,0,1,5.93.1568,40.8546,40.8546,0,0,1-3.3818,3.9428.9766.9766,0,0,0-.17.2555c-.282.0748-.5728.1487-.87.222A.9347.9347,0,0,0,91.5205,30.9551Zm5.7393.3779c-.6125.8319-1.2864,1.7463-1.9994,2.7133l-.0065.0088c-.8445,1.1452-1.7476,2.3693-2.6914,3.6478a15.46,15.46,0,0,1-3.99-3.5315c-.0893-.1123-.1634-.2328-.2492-.347A42.8666,42.8666,0,0,0,97.26,31.333Zm3.2574-1.0536a30.8877,30.8877,0,0,1,1.5009,4.6566c-.0567.72-1.6328.7281-2.5982.6636a4.3526,4.3526,0,0,1-2.234-.7945C98.481,33.0484,99.6194,31.5021,100.5172,30.2794Zm15.5433-3.9708a15.471,15.471,0,0,1-21.7174,12.35q.8508-1.1526,1.6512-2.2375a6.9349,6.9349,0,0,0,3.16,1.1616l.0156.0025a1.0127,1.0127,0,0,0,.1074.01c.2828.0191.5494.0279.8008.0279,3.0635,0,3.8423-1.3472,3.9341-2.5328.0758-.9827-1.5132-5.5374-2.3957-7.255.0433-.3092.0615-.5775.0681-.7406.0024-.0459.0034-.0918.0034-.1381a1,1,0,0,0-.9917-1h-.0083a1,1,0,0,0-1,.9834c-.0005.0239-.001.0488-.002.0737-.0522.8207-1.2292,1.7311-3.3979,2.6109,1.2688-1.4915,2.511-3.2326,2.1719-4.0128-.7051-1.6259-8.9517-1.019-9.0264-.99-1.2022.47-2.3521,1.771-1.0024,5.2988l.0009.0015a.9878.9878,0,0,0,.0518.1138,10.1415,10.1415,0,0,0,.9153,1.543q-1.0756.2226-2.2532.43a15.4673,15.4673,0,1,1,28.9145-5.6991Z"/>
    <path d="M102.2788 11.3369a.9016.9016 0 00-.1221-.0166l-.0254-.0019c-3.748-.2574-4.6572 1.2182-4.7563 2.5029-.0371.4766 1.9263 8.1582 3.5742 8.3472a.7215.7215 0 00.0723.0039c1.7856 0 5.2876-7.2486 5.2993-7.3252C106.5142 13.5757 105.9678 11.9375 102.2788 11.3369zm-1.03 8.2222a35.9279 35.9279 0 01-1.88-5.583c.0595-.7654 1.83-.7147 2.5933-.6646.9565.1558 2.49.5186 2.3906 1.1865A34.7443 34.7443 0 01101.249 19.5591zM90.0513 16.2739c-.0186.0215-.0367.044-.0533.0674-.0136.0186-.0263.0366-.038.0557-2.0894 3.1118-1.2652 4.6323-.2037 5.36a32.9139 32.9139 0 007.44 1.521c.7588 0 1.34-.1245 1.5766-.4438 1.0547-1.4243-3.5942-8.2627-3.6557-8.312C94.1133 13.7192 92.4185 13.3735 90.0513 16.2739zm.8359 3.8335c-.5962-.4087.1831-1.7739.7227-2.58.6132-.75 1.69-1.8945 2.2212-1.476a34.7777 34.7777 0 012.8315 5.22A36.0244 36.0244 0 0190.8872 20.1074zM111.63 27.1553c-.3936-.27-8.0279-2.41-9.0152-1.0782-1.0571 1.4234 3.5928 8.2637 3.6543 8.313a2.4159 2.4159 0 001.5225.566c.9341 0 2.1167-.5694 3.5439-2.3179.0186-.0215.0362-.044.0533-.0674.0136-.0181.0263-.0371.0385-.0557C113.5161 29.4028 112.6919 27.8828 111.63 27.1553zm-1.8531 4.2295c-.6142.7519-1.6943 1.89-2.2216 1.476a34.7372 34.7372 0 01-2.8311-5.22A35.972 35.972 0 01110.5 28.8047C111.0957 29.2134 110.3169 30.5786 109.7773 31.3848zM108.3687 16.0308c-.4317.2065-6.1021 5.7475-5.4419 7.27.3984.9194 3.2094 1.125 5.59 1.125 1.8286 0 3.4038-.1216 3.436-.1343 1.1978-.4682 2.3433-1.7612 1.0176-5.2588q-.0168-.0483-.0381-.0952c-.0073-.0156-.0146-.0312-.0224-.0464C111.2583 15.5229 109.53 15.4766 108.3687 16.0308zm2.9033 6.3818a34.66 34.66 0 01-5.9361-.1577 35.9923 35.9923 0 013.8955-4.42c.6475-.3111 1.4439 1.0444 1.8726 1.915C111.4473 20.6567 111.8989 22.165 111.272 22.4126z"/>
  </g>
</svg>