<?xml version="1.0" encoding="utf-8"?>
<svg viewBox="370.093 131.4301 261.809 261.2925" xmlns="http://www.w3.org/2000/svg">
  <g stroke-width="2.00" fill="none" stroke-linecap="butt" transform="matrix(-4.600367069244385, 0, 0, 4.600367069244385, 785.0004272460938, -53.180259704589844)" style="">
    <path stroke="#b6eec7" vector-effect="non-scaling-stroke" d=" M 42.55 43.30 L 74.43 59.30 Q 74.93 59.55 75.16 59.04 Q 78.29 52.15 78.87 45.01 Q 79.04 42.97 79.32 40.83 Q 79.40 40.25 78.81 40.25 L 43.05 40.25 Q 42.53 40.25 42.46 40.77 L 42.22 42.67 Q 42.16 43.10 42.55 43.30"/>
    <path stroke="#a4b1fc" vector-effect="non-scaling-stroke" d=" M 57.49 83.98 Q 46.24 90.05 33.76 90.00 Q 33.50 90.00 33.50 90.26 L 33.49 96.70 Q 33.49 96.91 33.71 96.92 Q 48.54 97.16 62.07 89.53"/>
    <path stroke="#aac4fd" vector-effect="non-scaling-stroke" d=" M 62.07 89.53 Q 76.18 81.24 84.00 66.24 Q 90.10 54.54 90.19 41.37 Q 90.20 39.97 88.82 40.15 Q 86.52 40.43 84.35 40.20 Q 82.80 40.03 83.10 41.56 Q 83.36 42.93 82.93 45.99 Q 79.38 71.17 57.49 83.98"/>
    <path stroke="#537bfd" vector-effect="non-scaling-stroke" d=" M 62.07 89.53 L 57.49 83.98"/>
    <path stroke="#b4e9d8" vector-effect="non-scaling-stroke" d=" M 53.02 74.21 L 55.92 79.70 A 0.41 0.41 0.0 0 0 56.49 79.86 Q 66.90 73.66 73.10 63.19 Q 73.37 62.73 72.90 62.47 L 68.53 60.18"/>
    <path stroke="#b6eec7" vector-effect="non-scaling-stroke" d=" M 68.53 60.18 L 41.34 46.45 A 1.12 1.10 -38.1 0 0 40.54 46.36 Q 39.52 46.62 39.34 47.65 Q 39.21 48.38 39.72 49.34 Q 46.39 61.88 53.02 74.21"/>
    <path stroke="#70dda3" vector-effect="non-scaling-stroke" d=" M 68.53 60.18 Q 67.20 62.02 65.51 62.84 Q 65.07 63.05 64.80 63.45 Q 64.43 63.98 63.73 64.61 Q 61.72 66.43 59.55 69.25 A 0.01 0.00 -26.6 0 1 59.54 69.25 Q 59.63 69.01 59.45 68.98 A 0.44 0.43 23.1 0 0 59.02 69.15 Q 57.65 71.03 55.78 72.03 Q 55.35 72.25 55.18 72.70 Q 54.78 73.72 53.02 74.21"/>
    <path stroke="#b6eec7" vector-effect="non-scaling-stroke" d=" M 52.93 81.26 L 36.37 49.77 Q 36.03 49.14 35.37 49.42 Q 34.71 49.70 34.01 49.61 Q 33.30 49.51 33.30 50.23 L 33.28 85.53 Q 33.28 86.10 33.85 86.09 Q 43.85 85.81 52.76 81.78 A 0.38 0.38 0.0 0 0 52.93 81.26"/>
  </g>
  <path d="M 568.271 132.364 L 421.611 205.97 C 420.415 206.582 419.909 207.548 420.093 208.868 L 421.197 217.609 C 421.414 219.205 422.32 220.001 423.912 220.001 L 588.421 220.001 C 590.233 220.001 591.015 219.113 590.767 217.333 C 589.911 210.768 589.221 204.36 588.697 198.103 C 586.921 176.206 581.23 154.69 571.629 133.56 C 570.925 131.996 569.808 131.596 568.271 132.364 Z" style="stroke: rgb(237, 133, 30); fill: rgb(237, 133, 30); transform-origin: 505.434px 175.992px;" transform="matrix(-1, 0, 0, -1, 0, 0)"/>
  <path d="M 391.164 131.431 L 370.094 156.963 C 437.232 196.25 476.243 254.505 487.127 331.731 C 488.447 341.116 488.71 347.911 487.909 352.111 C 486.989 356.803 488.908 358.887 493.66 358.367 C 500.316 357.663 507.171 357.737 514.223 358.597 C 518.456 359.149 520.558 357.277 520.526 352.985 C 520.25 312.594 510.759 274.457 492.05 238.574 C 468.068 192.57 434.439 156.857 391.164 131.431 Z" style="fill: rgb(35, 114, 229); transform-origin: 445.31px 245.061px;" transform="matrix(-1, 0, 0, -1, -0.000061035156, 0)"/>
  <path d="M 604.144 224.466 C 600.068 218.821 595.435 214.745 590.251 212.229 C 588.903 211.585 587.813 210.651 586.985 209.423 C 585.853 207.799 584.21 206.018 582.062 204.086 C 575.898 198.506 569.489 191.389 562.833 182.741 C 562.833 182.741 562.787 182.741 562.787 182.741 C 563.063 183.477 562.925 183.891 562.373 183.983 C 561.609 184.121 560.841 183.817 560.394 183.201 C 556.194 177.436 551.226 173.02 545.489 169.952 C 544.173 169.275 543.253 168.249 542.729 166.869 C 541.505 163.741 538.193 161.427 532.792 159.923 C 512.459 197.738 492.065 235.875 471.607 274.334 C 470.043 277.278 469.464 279.868 469.859 282.109 C 470.411 285.269 472.251 287.247 475.38 288.043 C 476.626 288.37 477.937 288.222 479.06 287.629 L 604.144 224.466 Z" style="stroke: rgb(237, 133, 30); fill: rgb(237, 133, 30); transform-origin: 536.941px 224.067px;" transform="matrix(-1, 0, 0, -1, 0, 0)"/>
  <path d="M 555.515 340.859 L 631.697 195.993 C 632.162 195.119 631.808 194.033 630.915 193.601 C 603.589 181.24 574.593 174.634 543.922 173.773 C 542.174 173.741 541.3 174.601 541.3 176.35 L 541.392 338.743 C 541.392 340.951 542.482 341.903 544.658 341.595 C 546.807 341.319 548.891 341.609 550.915 342.469 C 552.939 343.329 554.475 342.791 555.515 340.859 Z" style="fill: rgb(237, 133, 30); stroke: rgb(237, 133, 30); transform-origin: 586.601px 258.319px;" transform="matrix(-1, 0, 0, -1, 0.000122070313, 0)"/>
  <path d="M 519.613 314.467 L 539.716 303.932 C 541.161 303.136 541.465 302.032 540.637 300.62 C 521.623 268.509 496.151 242.945 464.224 223.932 C 463.3 223.384 462.108 223.72 461.602 224.668 L 448.261 249.924 C 453.662 251.428 456.974 253.742 458.198 256.87 C 458.722 258.25 459.642 259.276 460.958 259.953 C 466.695 263.021 471.663 267.437 475.863 273.202 C 476.31 273.818 477.078 274.122 477.842 273.984 C 478.394 273.892 478.532 273.478 478.256 272.742 C 478.256 272.742 478.302 272.742 478.302 272.742 C 484.958 281.39 491.367 288.507 497.531 294.087 C 499.679 296.019 501.322 297.8 502.454 299.424 C 503.282 300.652 504.372 301.586 505.72 302.23 C 510.904 304.746 515.537 308.822 519.613 314.467 Z" style="fill: rgb(237, 133, 30); stroke: rgb(237, 133, 30); transform-origin: 494.676px 269.069px;" transform="matrix(-1, 0, 0, -1, 0, 0)"/>
  <path d="M 609.866 392.72 L 630.936 367.188 C 589.44 343.786 545.953 332.455 500.469 333.191 C 499.797 333.224 499.457 333.559 499.457 334.204 L 499.503 363.83 C 499.503 364.626 499.903 365.026 500.699 365.026 C 538.974 364.874 575.363 374.103 609.866 392.72 Z" style="fill: rgb(35, 114, 229); transform-origin: 565.197px 362.94px;" transform="matrix(-1, 0, 0, -1, 0.000122070312, 0.000061035156)"/>
</svg>